<mxfile host="app.diagrams.net" agent="Mozilla/5.0 (Windows NT 10.0; Win64; x64) AppleWebKit/537.36 (KHTML, like Gecko) Chrome/131.0.0.0 Safari/537.36" version="25.0.1">
  <diagram name="第 1 页" id="7bzqy5_4VvPfCLiXi_A4">
    <mxGraphModel dx="875" dy="544" grid="1" gridSize="10" guides="1" tooltips="1" connect="1" arrows="1" fold="1" page="1" pageScale="1" pageWidth="827" pageHeight="1169" background="none" math="0" shadow="0">
      <root>
        <mxCell id="0" />
        <mxCell id="1" parent="0" />
        <mxCell id="kQwP7nP4GbzU0UcVtU4i-76" value="" style="rounded=0;whiteSpace=wrap;html=1;dashed=1;strokeWidth=2;strokeColor=#67AB9F;" vertex="1" parent="1">
          <mxGeometry x="80" y="240" width="121" height="270" as="geometry" />
        </mxCell>
        <mxCell id="kQwP7nP4GbzU0UcVtU4i-1" value="" style="rounded=0;whiteSpace=wrap;html=1;fillColor=none;strokeColor=#99CCFF;strokeWidth=2;" vertex="1" parent="1">
          <mxGeometry x="79" y="102" width="600" height="80" as="geometry" />
        </mxCell>
        <mxCell id="kQwP7nP4GbzU0UcVtU4i-2" value="数&lt;div&gt;字&lt;/div&gt;&lt;div&gt;媒&lt;/div&gt;&lt;div&gt;体&lt;/div&gt;&lt;div&gt;技&lt;/div&gt;&lt;div&gt;术&lt;/div&gt;" style="rounded=0;whiteSpace=wrap;html=1;strokeColor=#F19C99;strokeWidth=2;fontSize=32;fillColor=#f8cecc;dashed=1;" vertex="1" parent="1">
          <mxGeometry x="320" y="240" width="120" height="270" as="geometry" />
        </mxCell>
        <mxCell id="kQwP7nP4GbzU0UcVtU4i-4" value="人&lt;div&gt;工&lt;/div&gt;&lt;div&gt;智&lt;/div&gt;&lt;div&gt;能&lt;/div&gt;" style="rounded=0;whiteSpace=wrap;html=1;strokeColor=#FFB570;strokeWidth=2;fontSize=32;fillColor=#FFCE9F;dashed=1;" vertex="1" parent="1">
          <mxGeometry x="560" y="240" width="120" height="270" as="geometry" />
        </mxCell>
        <mxCell id="kQwP7nP4GbzU0UcVtU4i-5" value="数据结构" style="rounded=1;whiteSpace=wrap;html=1;fillColor=#99CCFF;strokeColor=none;" vertex="1" parent="1">
          <mxGeometry x="89" y="122" width="100" height="40" as="geometry" />
        </mxCell>
        <mxCell id="kQwP7nP4GbzU0UcVtU4i-6" value="数据库原理与应用" style="rounded=1;whiteSpace=wrap;html=1;fillColor=#99CCFF;strokeColor=none;" vertex="1" parent="1">
          <mxGeometry x="209" y="122" width="100" height="40" as="geometry" />
        </mxCell>
        <mxCell id="kQwP7nP4GbzU0UcVtU4i-7" value="数字音视频技术" style="rounded=1;whiteSpace=wrap;html=1;fillColor=#99CCFF;strokeColor=none;" vertex="1" parent="1">
          <mxGeometry x="329" y="122" width="100" height="40" as="geometry" />
        </mxCell>
        <mxCell id="kQwP7nP4GbzU0UcVtU4i-8" value="虚拟现实技术与应用" style="rounded=1;whiteSpace=wrap;html=1;strokeColor=none;fillColor=#99CCFF;" vertex="1" parent="1">
          <mxGeometry x="444" y="122" width="110" height="40" as="geometry" />
        </mxCell>
        <mxCell id="kQwP7nP4GbzU0UcVtU4i-9" value="游戏开发基础" style="rounded=1;whiteSpace=wrap;html=1;fillColor=#99CCFF;strokeColor=none;" vertex="1" parent="1">
          <mxGeometry x="569" y="122" width="100" height="40" as="geometry" />
        </mxCell>
        <mxCell id="kQwP7nP4GbzU0UcVtU4i-17" value="" style="endArrow=classic;html=1;rounded=0;strokeWidth=3;strokeColor=#3399FF;" edge="1" parent="1">
          <mxGeometry width="50" height="50" relative="1" as="geometry">
            <mxPoint x="309" y="266" as="sourcePoint" />
            <mxPoint x="209" y="266" as="targetPoint" />
          </mxGeometry>
        </mxCell>
        <mxCell id="kQwP7nP4GbzU0UcVtU4i-21" value="&lt;font&gt;虚拟&lt;/font&gt;&lt;div&gt;&lt;font&gt;现实&lt;/font&gt;&lt;/div&gt;&lt;div&gt;&lt;font&gt;技术&lt;/font&gt;&lt;/div&gt;" style="rounded=0;whiteSpace=wrap;html=1;fillColor=#d5e8d4;strokeColor=none;strokeWidth=1;fontSize=28;" vertex="1" parent="1">
          <mxGeometry x="80" y="240" width="120" height="120" as="geometry" />
        </mxCell>
        <mxCell id="kQwP7nP4GbzU0UcVtU4i-22" value="游戏&lt;div&gt;开发&lt;/div&gt;" style="rounded=0;whiteSpace=wrap;html=1;strokeColor=none;strokeWidth=2;fontSize=28;fillColor=#d5e8d4;" vertex="1" parent="1">
          <mxGeometry x="80" y="400" width="120" height="110" as="geometry" />
        </mxCell>
        <mxCell id="kQwP7nP4GbzU0UcVtU4i-25" value="" style="shape=curlyBracket;whiteSpace=wrap;html=1;rounded=1;flipH=1;labelPosition=right;verticalLabelPosition=middle;align=left;verticalAlign=middle;direction=north;strokeWidth=2;" vertex="1" parent="1">
          <mxGeometry x="139" y="510" width="480" height="30" as="geometry" />
        </mxCell>
        <mxCell id="kQwP7nP4GbzU0UcVtU4i-29" value="" style="edgeStyle=elbowEdgeStyle;elbow=vertical;endArrow=classic;html=1;curved=0;rounded=0;endSize=8;startSize=8;entryX=0.592;entryY=0.002;entryDx=0;entryDy=0;entryPerimeter=0;" edge="1" parent="1">
          <mxGeometry width="50" height="50" relative="1" as="geometry">
            <mxPoint x="376.96" y="239.46" as="sourcePoint" />
            <mxPoint x="619" y="240.00000000000009" as="targetPoint" />
            <Array as="points">
              <mxPoint x="500" y="220" />
              <mxPoint x="497.96" y="219.46" />
            </Array>
          </mxGeometry>
        </mxCell>
        <mxCell id="kQwP7nP4GbzU0UcVtU4i-30" value="" style="edgeStyle=elbowEdgeStyle;elbow=vertical;endArrow=classic;html=1;curved=0;rounded=0;endSize=8;startSize=8;entryX=0.5;entryY=0;entryDx=0;entryDy=0;" edge="1" parent="1" target="kQwP7nP4GbzU0UcVtU4i-21">
          <mxGeometry width="50" height="50" relative="1" as="geometry">
            <mxPoint x="376.96" y="229.46" as="sourcePoint" />
            <mxPoint x="619" y="230.00000000000009" as="targetPoint" />
            <Array as="points">
              <mxPoint x="270" y="220" />
            </Array>
          </mxGeometry>
        </mxCell>
        <mxCell id="kQwP7nP4GbzU0UcVtU4i-32" value="交互体验" style="text;html=1;align=center;verticalAlign=middle;resizable=0;points=[];autosize=1;strokeColor=none;fillColor=none;fontSize=12;fontStyle=1" vertex="1" parent="1">
          <mxGeometry x="224" y="236" width="70" height="30" as="geometry" />
        </mxCell>
        <mxCell id="kQwP7nP4GbzU0UcVtU4i-33" value="相辅相成" style="text;html=1;align=center;verticalAlign=middle;whiteSpace=wrap;rounded=0;fontSize=19;" vertex="1" parent="1">
          <mxGeometry x="327" y="540" width="106" height="30" as="geometry" />
        </mxCell>
        <mxCell id="kQwP7nP4GbzU0UcVtU4i-34" value="" style="endArrow=classic;html=1;rounded=0;strokeWidth=3;strokeColor=#3399FF;" edge="1" parent="1">
          <mxGeometry width="50" height="50" relative="1" as="geometry">
            <mxPoint x="309" y="306" as="sourcePoint" />
            <mxPoint x="209" y="306" as="targetPoint" />
          </mxGeometry>
        </mxCell>
        <mxCell id="kQwP7nP4GbzU0UcVtU4i-35" value="虚拟现实场景" style="text;html=1;align=center;verticalAlign=middle;resizable=0;points=[];autosize=1;strokeColor=none;fillColor=none;fontSize=12;fontStyle=1" vertex="1" parent="1">
          <mxGeometry x="209" y="276" width="100" height="30" as="geometry" />
        </mxCell>
        <mxCell id="kQwP7nP4GbzU0UcVtU4i-36" value="" style="endArrow=classic;html=1;rounded=0;strokeWidth=3;strokeColor=#3399FF;" edge="1" parent="1">
          <mxGeometry width="50" height="50" relative="1" as="geometry">
            <mxPoint x="309" y="346" as="sourcePoint" />
            <mxPoint x="209" y="346" as="targetPoint" />
          </mxGeometry>
        </mxCell>
        <mxCell id="kQwP7nP4GbzU0UcVtU4i-37" value="虚拟现实" style="text;html=1;align=center;verticalAlign=middle;resizable=0;points=[];autosize=1;strokeColor=none;fillColor=none;fontSize=12;fontStyle=1" vertex="1" parent="1">
          <mxGeometry x="224" y="316" width="70" height="30" as="geometry" />
        </mxCell>
        <mxCell id="kQwP7nP4GbzU0UcVtU4i-38" value="" style="endArrow=classic;html=1;rounded=0;strokeWidth=3;strokeColor=#3399FF;" edge="1" parent="1">
          <mxGeometry width="50" height="50" relative="1" as="geometry">
            <mxPoint x="309" y="385.58" as="sourcePoint" />
            <mxPoint x="209" y="385.58" as="targetPoint" />
          </mxGeometry>
        </mxCell>
        <mxCell id="kQwP7nP4GbzU0UcVtU4i-39" value="光影渲染" style="text;html=1;align=center;verticalAlign=middle;resizable=0;points=[];autosize=1;strokeColor=none;fillColor=none;fontSize=12;fontStyle=1" vertex="1" parent="1">
          <mxGeometry x="224" y="355.58" width="70" height="30" as="geometry" />
        </mxCell>
        <mxCell id="kQwP7nP4GbzU0UcVtU4i-40" value="" style="endArrow=classic;html=1;rounded=0;strokeWidth=3;strokeColor=#3399FF;" edge="1" parent="1">
          <mxGeometry width="50" height="50" relative="1" as="geometry">
            <mxPoint x="309" y="426" as="sourcePoint" />
            <mxPoint x="209" y="426" as="targetPoint" />
          </mxGeometry>
        </mxCell>
        <mxCell id="kQwP7nP4GbzU0UcVtU4i-41" value="游戏引擎" style="text;html=1;align=center;verticalAlign=middle;resizable=0;points=[];autosize=1;strokeColor=none;fillColor=none;fontSize=12;fontStyle=1" vertex="1" parent="1">
          <mxGeometry x="224" y="396" width="70" height="30" as="geometry" />
        </mxCell>
        <mxCell id="kQwP7nP4GbzU0UcVtU4i-42" value="" style="endArrow=classic;html=1;rounded=0;strokeWidth=3;strokeColor=#3399FF;" edge="1" parent="1">
          <mxGeometry width="50" height="50" relative="1" as="geometry">
            <mxPoint x="309" y="466" as="sourcePoint" />
            <mxPoint x="209" y="466" as="targetPoint" />
          </mxGeometry>
        </mxCell>
        <mxCell id="kQwP7nP4GbzU0UcVtU4i-43" value="编程语言" style="text;html=1;align=center;verticalAlign=middle;resizable=0;points=[];autosize=1;strokeColor=none;fillColor=none;fontSize=12;fontStyle=1" vertex="1" parent="1">
          <mxGeometry x="224" y="436" width="70" height="30" as="geometry" />
        </mxCell>
        <mxCell id="kQwP7nP4GbzU0UcVtU4i-44" value="" style="endArrow=classic;html=1;rounded=0;strokeWidth=3;strokeColor=#3399FF;" edge="1" parent="1">
          <mxGeometry width="50" height="50" relative="1" as="geometry">
            <mxPoint x="309" y="505.16999999999996" as="sourcePoint" />
            <mxPoint x="209" y="505.16999999999996" as="targetPoint" />
          </mxGeometry>
        </mxCell>
        <mxCell id="kQwP7nP4GbzU0UcVtU4i-45" value="游戏自动化测试" style="text;html=1;align=center;verticalAlign=middle;resizable=0;points=[];autosize=1;strokeColor=none;fillColor=none;fontSize=12;fontStyle=1" vertex="1" parent="1">
          <mxGeometry x="204" y="475.16999999999996" width="110" height="30" as="geometry" />
        </mxCell>
        <mxCell id="kQwP7nP4GbzU0UcVtU4i-53" value="" style="html=1;shadow=0;dashed=0;align=center;verticalAlign=middle;shape=mxgraph.arrows2.arrow;dy=0.6;dx=15.67;direction=south;notch=0;fillColor=#fff2cc;strokeColor=#d6b656;" vertex="1" parent="1">
          <mxGeometry x="159" y="185" width="21" height="30" as="geometry" />
        </mxCell>
        <mxCell id="kQwP7nP4GbzU0UcVtU4i-54" value="" style="html=1;shadow=0;dashed=0;align=center;verticalAlign=middle;shape=mxgraph.arrows2.arrow;dy=0.6;dx=15.67;direction=south;notch=0;fillColor=#fff2cc;strokeColor=#d6b656;" vertex="1" parent="1">
          <mxGeometry x="368.5" y="185" width="21" height="30" as="geometry" />
        </mxCell>
        <mxCell id="kQwP7nP4GbzU0UcVtU4i-55" value="" style="html=1;shadow=0;dashed=0;align=center;verticalAlign=middle;shape=mxgraph.arrows2.arrow;dy=0.6;dx=15.67;direction=south;notch=0;fillColor=#fff2cc;strokeColor=#d6b656;" vertex="1" parent="1">
          <mxGeometry x="570" y="185" width="21" height="30" as="geometry" />
        </mxCell>
        <mxCell id="kQwP7nP4GbzU0UcVtU4i-58" value="" style="endArrow=classic;html=1;rounded=0;strokeWidth=3;strokeColor=#3399FF;" edge="1" parent="1">
          <mxGeometry width="50" height="50" relative="1" as="geometry">
            <mxPoint x="449" y="270" as="sourcePoint" />
            <mxPoint x="549" y="270" as="targetPoint" />
          </mxGeometry>
        </mxCell>
        <mxCell id="kQwP7nP4GbzU0UcVtU4i-59" value="强化学习" style="text;html=1;align=center;verticalAlign=middle;resizable=0;points=[];autosize=1;strokeColor=none;fillColor=none;fontSize=12;fontStyle=1" vertex="1" parent="1">
          <mxGeometry x="464" y="240" width="70" height="30" as="geometry" />
        </mxCell>
        <mxCell id="kQwP7nP4GbzU0UcVtU4i-60" value="" style="endArrow=classic;html=1;rounded=0;strokeWidth=3;strokeColor=#3399FF;" edge="1" parent="1">
          <mxGeometry width="50" height="50" relative="1" as="geometry">
            <mxPoint x="449" y="310" as="sourcePoint" />
            <mxPoint x="549" y="310" as="targetPoint" />
          </mxGeometry>
        </mxCell>
        <mxCell id="kQwP7nP4GbzU0UcVtU4i-61" value="深度学习" style="text;html=1;align=center;verticalAlign=middle;resizable=0;points=[];autosize=1;strokeColor=none;fillColor=none;fontSize=12;fontStyle=1" vertex="1" parent="1">
          <mxGeometry x="464" y="280" width="70" height="30" as="geometry" />
        </mxCell>
        <mxCell id="kQwP7nP4GbzU0UcVtU4i-62" value="" style="endArrow=classic;html=1;rounded=0;strokeWidth=3;strokeColor=#3399FF;" edge="1" parent="1">
          <mxGeometry width="50" height="50" relative="1" as="geometry">
            <mxPoint x="449" y="350" as="sourcePoint" />
            <mxPoint x="549" y="350" as="targetPoint" />
          </mxGeometry>
        </mxCell>
        <mxCell id="kQwP7nP4GbzU0UcVtU4i-63" value="人机交互" style="text;html=1;align=center;verticalAlign=middle;resizable=0;points=[];autosize=1;strokeColor=none;fillColor=none;fontSize=12;fontStyle=1" vertex="1" parent="1">
          <mxGeometry x="464" y="320" width="70" height="30" as="geometry" />
        </mxCell>
        <mxCell id="kQwP7nP4GbzU0UcVtU4i-64" value="" style="endArrow=classic;html=1;rounded=0;strokeWidth=3;strokeColor=#3399FF;" edge="1" parent="1">
          <mxGeometry width="50" height="50" relative="1" as="geometry">
            <mxPoint x="449" y="389.58" as="sourcePoint" />
            <mxPoint x="549" y="389.58" as="targetPoint" />
          </mxGeometry>
        </mxCell>
        <mxCell id="kQwP7nP4GbzU0UcVtU4i-65" value="自然语言处理" style="text;html=1;align=center;verticalAlign=middle;resizable=0;points=[];autosize=1;strokeColor=none;fillColor=none;fontSize=12;fontStyle=1" vertex="1" parent="1">
          <mxGeometry x="449" y="359.58" width="100" height="30" as="geometry" />
        </mxCell>
        <mxCell id="kQwP7nP4GbzU0UcVtU4i-66" value="" style="endArrow=classic;html=1;rounded=0;strokeWidth=3;strokeColor=#3399FF;" edge="1" parent="1">
          <mxGeometry width="50" height="50" relative="1" as="geometry">
            <mxPoint x="449" y="430" as="sourcePoint" />
            <mxPoint x="549" y="430" as="targetPoint" />
          </mxGeometry>
        </mxCell>
        <mxCell id="kQwP7nP4GbzU0UcVtU4i-67" value="计算机视觉" style="text;html=1;align=center;verticalAlign=middle;resizable=0;points=[];autosize=1;strokeColor=none;fillColor=none;fontSize=12;fontStyle=1" vertex="1" parent="1">
          <mxGeometry x="459" y="400" width="80" height="30" as="geometry" />
        </mxCell>
        <mxCell id="kQwP7nP4GbzU0UcVtU4i-68" value="" style="endArrow=classic;html=1;rounded=0;strokeWidth=3;strokeColor=#3399FF;" edge="1" parent="1">
          <mxGeometry width="50" height="50" relative="1" as="geometry">
            <mxPoint x="449" y="470" as="sourcePoint" />
            <mxPoint x="549" y="470" as="targetPoint" />
          </mxGeometry>
        </mxCell>
        <mxCell id="kQwP7nP4GbzU0UcVtU4i-69" value="智能对话系统" style="text;html=1;align=center;verticalAlign=middle;resizable=0;points=[];autosize=1;strokeColor=none;fillColor=none;fontSize=12;fontStyle=1" vertex="1" parent="1">
          <mxGeometry x="449" y="440" width="100" height="30" as="geometry" />
        </mxCell>
        <mxCell id="kQwP7nP4GbzU0UcVtU4i-70" value="" style="endArrow=classic;html=1;rounded=0;strokeWidth=3;strokeColor=#3399FF;" edge="1" parent="1">
          <mxGeometry width="50" height="50" relative="1" as="geometry">
            <mxPoint x="449" y="509.16999999999996" as="sourcePoint" />
            <mxPoint x="549" y="509.16999999999996" as="targetPoint" />
          </mxGeometry>
        </mxCell>
        <mxCell id="kQwP7nP4GbzU0UcVtU4i-71" value="智能推荐系统" style="text;html=1;align=center;verticalAlign=middle;resizable=0;points=[];autosize=1;strokeColor=none;fillColor=none;fontSize=12;fontStyle=1" vertex="1" parent="1">
          <mxGeometry x="446" y="479.99999999999994" width="100" height="30" as="geometry" />
        </mxCell>
        <mxCell id="kQwP7nP4GbzU0UcVtU4i-75" value="" style="endArrow=classic;startArrow=classic;html=1;rounded=0;strokeWidth=2;strokeColor=#3399FF;" edge="1" parent="1">
          <mxGeometry width="50" height="50" relative="1" as="geometry">
            <mxPoint x="136" y="362" as="sourcePoint" />
            <mxPoint x="136" y="395" as="targetPoint" />
          </mxGeometry>
        </mxCell>
      </root>
    </mxGraphModel>
  </diagram>
</mxfile>
